<svg width="115" height="115" viewBox="0 0 115 115" fill="none" xmlns="http://www.w3.org/2000/svg">
<path d="M57.4999 0C25.7436 0 0 25.7436 0 57.4999C0 89.2562 25.7436 115 57.4999 115C89.2562 115 115 89.2562 115 57.4999C115 25.7436 89.2564 0 57.4999 0ZM77.0948 97.2059C75.6107 98.9213 73.0169 99.1087 71.3016 97.6244C71.2606 97.589 71.2205 97.5527 71.181 97.5159L30.1095 60.5516C28.4242 59.0333 28.2887 56.4364 29.8068 54.7511C29.9023 54.645 30.0034 54.5439 30.1095 54.4484L71.181 17.4841C72.8364 15.9334 75.4355 16.0181 76.9863 17.6735C78.537 19.329 78.4523 21.928 76.7969 23.4788C76.7574 23.5159 76.7172 23.552 76.6763 23.5873L39.0177 57.4999L76.6761 91.4124C78.3917 92.8968 78.5789 95.4905 77.0948 97.2059Z" fill="white"/>
</svg>
