<svg width="121" height="121" viewBox="0 0 121 121" fill="none" xmlns="http://www.w3.org/2000/svg">
<path d="M60.5001 0C93.9133 0 121 27.0867 121 60.4999C121 93.913 93.9133 121 60.5001 121C27.087 121 0.000244762 93.913 0.000244762 60.4999C0.000244762 27.0867 27.0867 0 60.5001 0ZM39.8829 102.278C41.4444 104.082 44.1735 104.28 45.9784 102.718C46.0214 102.681 46.0637 102.642 46.1052 102.604L89.3196 63.7108C91.0928 62.1133 91.2353 59.3809 89.6381 57.6077C89.5376 57.4961 89.4312 57.3897 89.3196 57.2892L46.1052 18.3964C44.3634 16.7647 41.6287 16.8538 39.9971 18.5956C38.3654 20.3375 38.4545 23.0721 40.1963 24.7038C40.2379 24.7428 40.2802 24.7808 40.3232 24.818L79.9465 60.4999L40.3235 96.1818C38.5183 97.7436 38.3213 100.473 39.8829 102.278Z" fill="white"/>
</svg>
