<svg width="420" height="150" viewBox="0 0 420 150" fill="none" xmlns="http://www.w3.org/2000/svg">
<path d="M32.3801 24.554C24.275 27.9467 15.3647 37.5315 12.5506 49.5625C8.98666 64.8062 23.8177 71.2523 25.0342 69.1387C26.4659 66.6552 22.3766 65.8154 21.5349 57.9062C20.447 47.6909 25.1961 36.2764 31.173 31.268C32.284 30.3375 32.2311 31.6326 32.2311 34.0282C32.2311 38.312 31.9944 76.7679 31.9944 84.7937C31.9944 95.6536 31.5459 99.083 30.7403 102.472C29.924 105.906 28.6118 108.226 29.6061 109.12C30.7171 110.12 35.4604 107.741 38.2064 103.909C41.4993 99.3124 42.6519 93.7922 42.8589 87.7973C43.1088 80.5707 43.0982 69.1036 43.1088 62.5629C43.1188 56.564 43.2099 38.9981 43.0037 28.4381C42.9531 25.8479 35.7697 23.1305 32.3797 24.5508L32.3801 24.554ZM320.193 75.3775C319.932 81.0233 318.682 85.4363 317.131 88.549C314.129 94.575 307.898 96.4461 305.252 87.7835C303.811 83.0615 303.743 75.1753 304.78 68.5859C305.835 61.8732 308.781 56.8035 313.659 57.2607C318.471 57.7127 320.723 63.9128 320.193 75.3773V75.3775ZM239.076 110.405C239.01 119.786 237.534 128.011 234.368 130.4C229.877 133.788 223.842 131.247 225.092 124.401C226.198 118.344 231.427 112.158 239.088 104.599C239.088 104.599 239.104 106.323 239.076 110.405H239.076ZM237.849 75.3229C237.575 80.4651 236.242 85.6309 234.787 88.5497C231.785 94.5756 225.509 96.4595 222.908 87.7842C221.13 81.8569 221.556 74.1855 222.436 69.3518C223.577 63.0803 226.345 57.2621 231.315 57.2621C236.148 57.2621 238.53 62.5637 237.849 75.3233V75.3229ZM190.858 75.2442C190.563 80.6903 189.501 85.243 187.796 88.5497C184.711 94.5342 178.608 96.4321 175.916 87.7842C173.976 81.5484 174.637 73.0457 175.444 68.4526C176.642 61.6366 179.641 56.8042 184.324 57.2621C189.133 57.732 191.471 63.9135 190.858 75.2446V75.2442ZM406.21 81.6055C405.034 81.6055 404.497 82.8175 404.053 84.8575C402.514 91.9508 400.895 93.5525 398.808 93.5525C396.477 93.5525 394.382 90.0402 393.843 83.0092C393.42 77.4806 393.488 67.3022 394.029 57.1775C394.14 55.0972 393.566 53.039 387.986 51.012C385.585 50.1402 382.095 48.8564 380.358 53.051C375.448 64.9013 373.527 74.3095 373.075 78.1315C373.052 78.3293 372.809 78.3697 372.767 77.9075C372.479 74.8464 371.835 69.2838 371.755 57.5968C371.739 55.3165 371.256 53.3756 368.739 51.7865C367.106 50.7554 362.147 48.9318 360.362 51.1013C358.815 52.8757 357.023 57.6507 355.161 63.311C353.648 67.9114 352.594 71.0235 352.594 71.0235C352.594 71.0235 352.614 58.6106 352.632 53.9021C352.64 52.1258 351.422 51.5339 351.055 51.4266C349.401 50.9467 346.143 50.1449 344.76 50.1449C343.054 50.1449 342.636 51.0987 342.636 52.4884C342.636 52.6704 342.366 68.8313 342.366 80.1317C342.366 80.6226 342.366 81.1581 342.371 81.727C341.428 86.9208 338.367 93.9713 335.038 93.9713C331.705 93.9713 330.133 91.0237 330.133 77.5518C330.133 69.6927 330.369 66.2753 330.485 60.5911C330.552 57.3171 330.682 54.8029 330.675 54.2323C330.651 52.4827 327.625 51.6008 326.217 51.2749C324.803 50.9463 323.574 50.819 322.614 50.8736C321.256 50.9503 320.294 51.8415 320.294 53.0672C320.294 53.7244 320.302 54.9742 320.302 54.9742C318.552 52.2247 315.738 50.3111 313.866 49.7565C308.823 48.2588 303.56 49.5859 299.591 55.1402C296.437 59.5533 294.535 64.5517 293.786 71.733C293.239 76.983 293.418 82.3069 294.39 86.8094C293.215 91.8899 291.034 93.9713 288.645 93.9713C285.177 93.9713 282.662 88.3107 282.954 78.521C283.147 72.0819 284.436 67.5631 285.844 61.0257C286.444 58.2389 285.957 56.7798 284.733 55.3814C283.61 54.099 281.219 53.4438 277.781 54.2497C275.332 54.8242 271.831 55.4421 268.627 55.9167C268.627 55.9167 268.821 55.1455 268.979 53.7858C269.812 46.6551 262.064 47.2337 259.592 49.5112C258.116 50.871 257.111 52.4747 256.73 55.3581C256.126 59.9339 259.858 62.0922 259.858 62.0922C258.633 67.6971 255.632 75.019 252.533 80.3126C250.873 83.1488 249.604 85.2505 247.965 87.4846C247.959 86.6527 247.954 85.8209 247.951 84.9929C247.914 73.2091 248.07 63.9349 248.14 60.5922C248.207 57.3182 248.338 54.8707 248.331 54.3001C248.312 53.0204 247.565 52.5371 246.011 51.9252C244.636 51.384 243.011 51.0094 241.326 50.8788C239.198 50.7128 237.916 51.8413 237.95 53.1757C237.956 53.4276 237.956 54.9747 237.956 54.9747C236.206 52.2252 233.392 50.3116 231.52 49.757C226.477 48.2599 221.215 49.587 217.245 55.1406C214.091 59.5538 212.026 65.7466 211.44 71.6788C210.895 77.2076 210.996 81.9061 211.739 85.864C210.937 89.8273 208.632 93.9718 206.025 93.9718C202.692 93.9718 200.796 91.0242 200.796 77.5523C200.796 69.6932 201.032 66.2758 201.148 60.5922C201.215 57.3182 201.345 54.8034 201.338 54.2335C201.313 52.4838 198.288 51.602 196.88 51.2754C195.407 50.9348 194.135 50.8095 193.159 50.8814C191.87 50.9774 190.964 52.1312 190.964 52.9917V54.9747C189.215 52.2252 186.401 50.3116 184.528 49.757C179.485 48.2599 174.252 49.6084 170.254 55.1406C167.646 58.7479 165.535 62.7472 164.449 71.6001C164.135 74.1585 163.996 76.5542 164.014 78.7934C162.974 85.1524 158.382 92.4814 154.625 92.4814C152.427 92.4814 150.334 88.2177 150.334 79.1307C150.334 67.0263 151.083 49.7923 151.209 48.1313C151.209 48.1313 155.956 48.0507 156.875 48.04C159.242 48.014 161.387 48.07 164.54 47.9087C166.122 47.828 167.646 42.1518 166.013 41.4493C165.273 41.1313 160.044 40.8527 157.971 40.8087C156.228 40.7692 151.376 40.4101 151.376 40.4101C151.376 40.4101 151.811 28.971 151.913 27.7626C151.999 26.7554 150.695 26.2369 149.948 25.9222C148.131 25.1537 146.506 24.7858 144.579 24.3885C141.916 23.8393 140.709 24.3765 140.473 26.6234C140.118 30.0335 139.934 40.0215 139.934 40.0215C137.98 40.0215 131.307 39.6396 129.352 39.6396C127.537 39.6396 125.577 47.4481 128.087 47.5441C130.975 47.6561 136.008 47.7527 139.345 47.8534C139.345 47.8534 139.196 65.3713 139.196 70.7796C139.196 71.355 139.201 71.9091 139.202 72.4468C137.366 82.0183 130.898 87.1886 130.898 87.1886C132.287 80.8565 129.45 76.1014 124.339 72.0762C122.456 70.5929 118.738 67.7848 114.579 64.7076C114.579 64.7076 116.988 62.3334 119.124 57.557C120.638 54.1736 120.703 50.3017 116.988 49.4479C110.849 48.0361 105.787 52.5446 104.278 57.3577C103.108 61.0863 103.732 63.8531 106.023 66.7272C106.191 66.9372 106.372 67.1518 106.559 67.3677C105.174 70.0387 103.27 73.6347 101.658 76.4233C97.1824 84.1658 93.8018 90.29 91.2469 90.29C89.2046 90.29 89.232 84.0724 89.232 78.251C89.232 73.2324 89.6026 65.6874 89.8985 57.8756C89.9965 55.2921 88.7047 53.8203 86.5392 52.4873C85.2234 51.6774 82.4153 50.0851 80.7889 50.0851C78.3546 50.0851 71.3314 50.4163 64.6954 69.612C63.8591 72.0314 62.2161 76.44 62.2161 76.44L62.3575 53.3564C62.3575 52.8152 62.0693 52.292 61.4093 51.934C60.291 51.3268 57.3043 50.0851 54.6486 50.0851C53.3832 50.0851 52.7518 50.6736 52.7518 51.8467L52.5201 87.9611C52.5201 90.7051 52.5917 93.9063 52.863 95.3064C53.1333 96.7082 53.5712 97.8486 54.1135 98.5271C54.6551 99.2043 55.2815 99.7209 56.3144 99.9341C57.2757 100.132 62.5395 100.808 62.8131 98.7964C63.1409 96.3856 63.1535 93.7781 65.9175 84.0532C70.2206 68.9128 75.831 61.5255 78.4684 58.902C78.9296 58.4435 79.4561 58.4161 79.4308 59.1666C79.3182 62.486 78.9222 70.7804 78.6557 77.8271C77.9412 96.6848 81.3718 100.18 86.2742 100.18C90.0248 100.18 95.3118 96.4534 100.979 87.02C104.513 81.1412 107.943 75.3769 110.408 71.2223C112.126 72.8124 114.054 74.5238 115.98 76.3521C120.456 80.6007 121.926 84.6378 120.951 88.4677C120.205 91.3956 117.396 94.4129 112.397 91.4802C110.94 90.6246 110.318 89.9635 108.853 88.9989C108.066 88.4807 106.864 88.3258 106.144 88.8687C104.272 90.2799 103.202 92.0748 102.59 94.2971C101.996 96.4594 104.161 97.6025 106.406 98.6023C108.339 99.4628 112.494 100.243 115.143 100.331C125.467 100.677 133.736 95.3469 139.493 81.5989C140.524 93.472 144.91 100.191 152.529 100.191C157.624 100.191 162.731 93.6058 164.965 87.1279C165.606 89.7685 166.555 92.0647 167.781 94.0065C173.653 103.309 185.043 101.307 190.765 93.4075C192.534 90.9665 192.803 90.0894 192.803 90.0894C193.638 97.5486 199.644 100.155 203.084 100.155C206.936 100.155 210.913 98.3338 213.7 92.0583C214.027 92.7394 214.384 93.3898 214.773 94.0063C220.644 103.309 232.035 101.307 237.756 93.4073C238.026 93.0367 238.26 92.7006 238.465 92.3989L238.633 97.2984C238.633 97.2984 235.369 100.293 233.365 102.13C224.547 110.22 217.842 116.358 217.348 123.506C216.715 132.62 224.107 136.008 229.699 136.452C235.638 136.923 240.724 133.642 243.85 129.051C246.599 125.01 248.399 116.312 248.267 107.722C248.214 104.282 248.128 99.9079 248.06 95.2195C251.159 91.6202 254.651 87.0711 257.867 81.7461C261.371 75.9431 265.126 68.1501 267.049 62.0852C267.049 62.0852 270.312 62.1132 273.793 61.8853C274.907 61.8126 275.227 62.0399 275.021 62.8564C274.773 63.8429 270.622 79.8518 274.41 90.5164C277.003 97.817 282.848 100.166 286.313 100.166C290.37 100.166 294.25 97.1024 296.33 92.5534C296.58 93.0605 296.842 93.5513 297.128 94.0043C303 103.307 314.35 101.293 320.112 93.4053C321.412 91.6257 322.15 90.0872 322.15 90.0872C323.387 97.807 329.39 100.192 332.829 100.192C336.411 100.192 339.81 98.7234 342.568 92.1974C342.684 95.0708 342.865 97.4204 343.151 98.1611C343.326 98.6141 344.344 99.1828 345.084 99.4575C348.361 100.673 351.703 100.098 352.94 99.848C353.796 99.6747 354.464 98.9875 354.555 97.2131C354.795 92.5541 354.648 84.7262 356.06 78.9086C358.431 69.1452 360.643 65.3579 361.692 63.483C362.279 62.4325 362.942 62.2592 362.966 63.371C363.015 65.6205 363.127 72.2266 364.045 81.1022C364.72 87.6299 365.621 91.4882 366.314 92.7093C368.29 96.2013 370.731 96.3667 372.718 96.3667C373.983 96.3667 376.627 96.0173 376.39 93.7951C376.275 92.7119 376.477 86.0179 378.815 76.3991C380.341 70.1177 382.886 64.442 383.804 62.3671C384.142 61.6019 384.3 62.2051 384.294 62.3226C384.101 66.6485 383.667 80.7978 385.429 88.5363C387.818 99.0196 394.729 100.193 397.137 100.193C402.278 100.193 406.483 96.282 407.899 85.9921C408.24 83.5158 407.735 81.6037 406.221 81.6037" fill="#262626"/>
</svg>
